<svg version="1.1" id="Layer_1" xmlns="http://www.w3.org/2000/svg" xmlns:xlink="http://www.w3.org/1999/xlink" x="0px" y="0px"
	 width="100%" viewBox="0 0 289 168" enable-background="new 0 0 289 168" xml:space="preserve">
<path fill="#000000" opacity="1.000000" stroke="none" 
	d="
M172.000000,169.000000 
	C114.666672,169.000000 57.833347,169.000000 1.000015,169.000000 
	C1.000010,113.000015 1.000010,57.000027 1.000005,1.000030 
	C97.333313,1.000020 193.666626,1.000020 289.999939,1.000010 
	C289.999969,56.999969 289.999969,112.999939 290.000000,168.999954 
	C250.833328,169.000000 211.666672,169.000000 172.000000,169.000000 
M173.269928,145.733597 
	C174.687607,145.419739 176.105270,145.105881 178.459274,144.892349 
	C180.638779,144.859406 182.818268,144.826447 185.475159,145.084274 
	C186.983795,144.990173 188.492432,144.896072 190.865814,144.904953 
	C196.192520,145.898529 199.105453,144.127762 198.047256,137.809067 
	C201.145966,144.360367 201.149124,144.331436 207.704987,145.045822 
	C208.824615,145.167847 209.904297,145.656418 211.875305,145.977066 
	C214.936661,145.592346 217.998032,145.207626 221.960403,144.923462 
	C226.043793,145.104782 230.127304,145.283676 234.210556,145.468216 
	C237.287415,145.607269 238.683060,144.262115 238.679962,141.121948 
	C239.584641,141.453644 240.512634,141.733414 241.389557,142.126938 
	C243.877731,143.243454 246.287567,145.196350 248.832870,145.381500 
	C253.651062,145.731979 258.542297,145.078217 263.949188,144.815140 
	C263.949188,141.897583 263.949188,138.972351 264.036316,135.313492 
	C264.016388,134.820953 263.996490,134.328415 264.417847,133.258667 
	C264.624207,132.486130 265.131439,131.652222 264.988403,130.950974 
	C264.012238,126.165146 258.690521,120.980377 253.746689,120.357979 
	C248.323700,119.675255 244.285736,122.348175 241.039169,126.465752 
	C240.088486,127.671478 239.051361,128.809021 238.005295,129.165970 
	C237.555984,123.099022 236.488708,121.951599 230.402618,122.070305 
	C225.598755,122.164001 220.803116,122.678604 215.343842,122.729851 
	C213.955780,122.477592 212.567703,122.225342 210.968628,121.390465 
	C210.316727,120.935905 209.664825,120.481346 209.046738,119.289314 
	C203.631897,110.787819 195.264359,113.172966 188.250046,112.956848 
	C187.800262,117.675102 187.402267,121.850204 186.403076,125.694725 
	C183.608688,122.633270 180.443481,120.588890 176.021057,121.961136 
	C176.021057,121.961136 176.074539,121.953926 176.084137,121.071129 
	C175.676010,112.047859 175.239273,111.698097 166.257660,113.528549 
	C166.164429,115.224365 166.424469,117.143311 165.852249,118.769371 
	C165.405441,120.039055 163.818848,121.947006 162.920990,121.851837 
	C156.551575,121.176689 153.702652,125.349052 150.428391,129.461563 
	C147.225128,122.249886 142.162460,119.486877 134.710037,120.883095 
	C128.908508,121.970016 125.867737,127.141899 126.022102,135.659912 
	C126.125488,141.364090 128.853806,144.953461 134.157364,145.353561 
	C139.191101,145.733307 144.275955,145.435257 149.950226,145.435257 
	C149.950226,141.862259 149.950226,138.929596 150.093094,135.474533 
	C150.391800,135.294418 150.690521,135.114288 151.298676,135.602966 
	C153.532501,144.667679 157.804184,147.177063 167.873352,144.937805 
	C169.606308,144.970978 171.339264,145.004166 173.269928,145.733597 
M118.734283,145.547104 
	C119.174507,143.878433 119.943817,142.219666 119.994308,140.539291 
	C120.157059,135.123428 120.054962,129.699615 120.054962,124.336052 
	C121.398628,123.871605 122.582680,123.462326 124.246330,123.603165 
	C124.753281,120.610008 125.531281,117.615608 125.517456,114.624847 
	C125.514961,114.086113 122.273224,113.197235 120.492569,113.099884 
	C115.016197,112.800446 109.523117,112.806564 104.547508,112.255013 
	C108.890610,111.178352 113.229927,110.086090 117.578255,109.030975 
	C120.109085,108.416870 122.654358,107.862274 125.256004,107.179054 
	C125.256004,107.179054 125.219093,107.066452 125.889153,106.995506 
	C130.075089,98.342690 137.509659,93.582863 146.700058,90.043755 
	C147.129395,89.987129 147.558731,89.930496 148.853851,89.959221 
	C155.119476,89.645027 161.390900,89.408546 167.645248,88.942841 
	C168.732117,88.861908 170.483047,87.995026 170.683762,87.183571 
	C173.381607,76.277046 180.526230,69.963165 191.678421,67.002937 
	C192.131226,66.959251 192.584045,66.915565 193.799576,66.512383 
	C204.854034,66.345940 215.909378,66.218620 226.961990,65.970428 
	C228.599594,65.933662 230.224380,65.326317 231.935303,64.207191 
	C234.062210,60.155174 236.189117,56.103157 238.591125,51.527016 
	C235.833786,49.175602 231.903809,45.988819 228.160095,42.596508 
	C220.870468,35.991131 214.003036,28.806639 204.040451,25.437254 
	C204.299866,22.609732 204.559296,19.782209 204.897552,16.095325 
	C200.241043,16.998266 195.993378,16.645658 193.434387,18.555601 
	C187.559738,22.940228 182.677322,28.625824 177.072678,33.409016 
	C171.909515,37.815414 166.274841,41.664444 160.948868,45.886387 
	C156.135178,49.702255 151.458038,53.690380 146.731583,57.593552 
	C142.434219,52.496586 138.604645,47.738316 134.466705,43.265305 
	C133.799103,42.543655 131.250458,42.476974 130.434586,43.151566 
	C124.589813,47.984207 118.961052,53.078705 113.278755,58.107071 
	C109.663773,61.306030 106.150269,64.624161 102.456924,67.729065 
	C96.297699,72.906982 89.896751,77.803680 83.845062,83.101494 
	C77.131706,88.978569 70.837990,95.336533 64.098030,101.181221 
	C57.727203,106.705795 50.973385,111.786369 44.469517,117.160851 
	C41.218697,119.847153 38.154610,122.759033 34.997383,125.559097 
	C30.418125,129.620331 25.900877,133.755951 21.213863,137.689056 
	C19.259176,139.329330 16.772377,140.699326 19.063999,143.506058 
	C20.769899,145.595413 21.861555,150.659607 26.603342,146.534119 
	C28.077421,150.185776 34.852142,153.090515 40.648022,152.988754 
	C51.380230,152.800308 62.116749,152.850586 72.851524,152.817978 
	C78.856522,152.799728 84.861626,152.814697 90.311920,152.814697 
	C89.868484,145.823257 88.715324,139.541473 89.259949,133.410522 
	C90.055939,124.449638 96.580956,118.650711 103.099350,113.506409 
	C103.385696,113.724281 103.672043,113.942154 103.970657,115.046890 
	C103.970657,117.926895 103.970657,120.806900 103.970657,123.980591 
	C106.349747,123.980591 107.893448,123.980591 110.187416,123.980591 
	C110.187416,130.838303 110.187416,137.385834 110.277443,144.701324 
	C112.859116,145.093842 115.440788,145.486374 118.734283,145.547104 
M220.659393,115.389801 
	C220.264343,110.617699 216.763290,110.430267 213.517166,111.268051 
	C212.360764,111.566513 211.527985,114.259048 211.164703,115.988419 
	C210.994064,116.800713 212.212296,118.695885 212.926971,118.763123 
	C215.700790,119.024117 219.034637,120.113380 220.659393,115.389801 
z"/>
<path fill="#044F1B" opacity="1.000000" stroke="none" 
	d="
M125.193130,107.280907 
	C122.654358,107.862274 120.109085,108.416870 117.578255,109.030975 
	C113.229927,110.086090 108.890610,111.178352 103.996788,112.526451 
	C103.258408,112.867363 103.070740,112.936844 102.883080,113.006332 
	C96.580956,118.650711 90.055939,124.449638 89.259949,133.410522 
	C88.715324,139.541473 89.868484,145.823257 90.311920,152.814697 
	C84.861626,152.814697 78.856522,152.799728 72.851524,152.817978 
	C62.116749,152.850586 51.380230,152.800308 40.648022,152.988754 
	C34.852142,153.090515 28.077421,150.185776 26.557434,146.020386 
	C28.328493,143.579895 30.011574,141.501343 31.989305,139.756821 
	C36.616665,135.675125 41.430302,131.804977 46.073612,127.740761 
	C47.814499,126.216988 49.145020,124.216888 50.914261,122.734215 
	C61.679367,113.712837 72.517021,104.778023 83.606125,95.802010 
	C84.355438,95.512329 84.829094,95.234970 85.422256,94.859726 
	C85.694206,94.621964 85.829247,94.466927 86.267075,94.135971 
	C87.732018,92.975372 88.876785,91.975540 90.015259,90.992096 
	C90.008972,91.008476 89.976295,91.021255 90.322922,90.933350 
	C95.363159,86.690315 100.056763,82.535187 104.965652,78.088669 
	C113.134743,70.208183 121.088531,62.619083 129.284653,55.305836 
	C129.644791,56.223160 130.025024,56.954025 129.841476,57.492844 
	C126.494904,67.316948 123.343605,77.220070 119.590012,86.888695 
	C117.006294,93.543915 113.567711,99.867249 110.066307,107.280907 
	C115.655128,107.280907 120.424126,107.280907 125.193130,107.280907 
z"/>
<path fill="#1C304F" opacity="1.000000" stroke="none" 
	d="
M85.946899,94.296730 
	C85.829247,94.466927 85.694206,94.621964 85.123276,94.815948 
	C84.246674,95.184807 83.788567,95.499565 83.330460,95.814323 
	C72.517021,104.778023 61.679367,113.712837 50.914261,122.734215 
	C49.145020,124.216888 47.814499,126.216988 46.073612,127.740761 
	C41.430302,131.804977 36.616665,135.675125 31.989305,139.756821 
	C30.011574,141.501343 28.328493,143.579895 26.320066,145.768036 
	C21.861555,150.659607 20.769899,145.595413 19.063999,143.506058 
	C16.772377,140.699326 19.259176,139.329330 21.213863,137.689056 
	C25.900877,133.755951 30.418125,129.620331 34.997383,125.559097 
	C38.154610,122.759033 41.218697,119.847153 44.469517,117.160851 
	C50.973385,111.786369 57.727203,106.705795 64.098030,101.181221 
	C70.837990,95.336533 77.131706,88.978569 83.845062,83.101494 
	C89.896751,77.803680 96.297699,72.906982 102.456924,67.729065 
	C106.150269,64.624161 109.663773,61.306030 113.278755,58.107071 
	C118.961052,53.078705 124.589813,47.984207 130.434586,43.151566 
	C131.250458,42.476974 133.799103,42.543655 134.466705,43.265305 
	C138.604645,47.738316 142.434219,52.496586 146.731583,57.593552 
	C151.458038,53.690380 156.135178,49.702255 160.948868,45.886387 
	C166.274841,41.664444 171.909515,37.815414 177.072678,33.409016 
	C182.677322,28.625824 187.559738,22.940228 193.434387,18.555601 
	C195.993378,16.645658 200.241043,16.998266 204.897552,16.095325 
	C204.559296,19.782209 204.299866,22.609732 203.749496,25.902176 
	C202.304718,26.907116 201.150909,27.447134 199.764404,27.753834 
	C196.770935,29.277109 193.855255,30.833355 191.277390,32.826527 
	C182.255890,39.801819 173.378098,46.962574 164.392258,53.984489 
	C158.301147,58.744335 152.120483,63.389565 145.701004,67.896439 
	C141.812088,63.664803 138.181808,59.640583 134.600739,55.573059 
	C132.880203,53.618805 131.179184,52.322010 129.042328,55.029984 
	C121.088531,62.619083 113.134743,70.208183 104.626816,78.048309 
	C99.373886,82.539970 94.675087,86.780617 89.976295,91.021255 
	C89.976295,91.021255 90.008972,91.008476 89.654602,91.025650 
	C88.182457,92.127457 87.064674,93.212090 85.946899,94.296730 
z"/>
<path fill="#034F1A" opacity="1.000000" stroke="none" 
	d="
M145.979874,68.086060 
	C152.120483,63.389565 158.301147,58.744335 164.392258,53.984489 
	C173.378098,46.962574 182.255890,39.801819 191.277390,32.826527 
	C193.855255,30.833355 196.770935,29.277109 199.536835,28.019293 
	C198.653549,29.656881 197.400192,30.665525 196.939590,31.956921 
	C194.891830,37.698162 192.373657,43.402454 191.368439,49.347172 
	C190.402466,55.059780 186.367172,61.005867 190.997421,66.920380 
	C180.526230,69.963165 173.381607,76.277046 170.683762,87.183571 
	C170.483047,87.995026 168.732117,88.861908 167.645248,88.942841 
	C161.390900,89.408546 155.119476,89.645027 148.522278,89.596420 
	C149.337601,88.472496 150.484482,87.711380 152.095184,86.642456 
	C150.710632,82.703400 149.323929,78.892624 148.037659,75.048248 
	C147.270294,72.754768 146.660507,70.408562 145.979874,68.086060 
z"/>
<path fill="#045C23" opacity="1.000000" stroke="none" 
	d="
M191.337921,66.961655 
	C186.367172,61.005867 190.402466,55.059780 191.368439,49.347172 
	C192.373657,43.402454 194.891830,37.698162 196.939590,31.956921 
	C197.400192,30.665525 198.653549,29.656881 199.769516,28.252613 
	C201.150909,27.447134 202.304718,26.907116 203.754150,26.239143 
	C214.003036,28.806639 220.870468,35.991131 228.160095,42.596508 
	C231.903809,45.988819 235.833786,49.175602 238.591125,51.527016 
	C236.189117,56.103157 234.062210,60.155174 231.439331,64.583954 
	C219.963104,64.976158 208.981613,64.913948 198.003952,65.089966 
	C196.339157,65.116653 194.692108,66.250275 193.036850,66.871880 
	C192.584045,66.915565 192.131226,66.959251 191.337921,66.961655 
z"/>
<path fill="#045C24" opacity="1.000000" stroke="none" 
	d="
M145.701004,67.896439 
	C146.660507,70.408562 147.270294,72.754768 148.037659,75.048248 
	C149.323929,78.892624 150.710632,82.703400 152.095184,86.642456 
	C150.484482,87.711380 149.337601,88.472496 148.089386,89.553741 
	C147.558731,89.930496 147.129395,89.987129 146.133545,89.836174 
	C142.399063,90.910797 139.238312,92.211159 136.061630,93.471344 
	C129.847305,95.936577 126.387314,100.584068 125.219093,107.066452 
	C125.219093,107.066452 125.256004,107.179054 125.224564,107.229980 
	C120.424126,107.280907 115.655128,107.280907 110.066307,107.280907 
	C113.567711,99.867249 117.006294,93.543915 119.590012,86.888695 
	C123.343605,77.220070 126.494904,67.316948 129.841476,57.492844 
	C130.025024,56.954025 129.644791,56.223160 129.284653,55.305840 
	C131.179184,52.322010 132.880203,53.618805 134.600739,55.573059 
	C138.181808,59.640583 141.812088,63.664803 145.701004,67.896439 
z"/>
<path fill="#1B2D51" opacity="1.000000" stroke="none" 
	d="
M211.002441,145.975662 
	C209.904297,145.656418 208.824615,145.167847 207.704987,145.045822 
	C201.149124,144.331436 201.145966,144.360367 198.047256,137.809067 
	C199.105453,144.127762 196.192520,145.898529 190.433594,144.404388 
	C189.123886,137.923950 192.360474,131.254395 187.004272,126.025299 
	C187.402267,121.850204 187.800262,117.675102 188.250046,112.956848 
	C195.264359,113.172966 203.631897,110.787819 209.065613,120.112007 
	C208.822983,124.323402 208.563065,127.712234 208.299606,131.100784 
	C207.950531,135.590652 208.052582,139.989120 210.942200,143.912048 
	C211.024323,143.979660 211.178619,144.126114 211.132477,144.432312 
	C211.058380,145.150909 211.030411,145.563278 211.002441,145.975662 
z"/>
<path fill="#1E2F52" opacity="1.000000" stroke="none" 
	d="
M263.949188,136.047119 
	C263.949188,138.972351 263.949188,141.897583 263.949188,144.815140 
	C258.542297,145.078217 253.651062,145.731979 248.832870,145.381500 
	C246.287567,145.196350 243.877731,143.243454 241.389557,142.126938 
	C240.512634,141.733414 239.584641,141.453644 238.339691,140.751480 
	C236.668533,137.914917 235.337677,135.448837 234.255173,133.026855 
	C234.669952,133.046570 234.836365,133.022186 235.292862,133.129013 
	C236.560394,133.934860 237.537827,134.609528 239.729340,136.122177 
	C238.820267,133.514832 238.382339,132.258804 237.553329,130.993835 
	C236.118256,131.018295 235.074265,131.051727 234.274384,130.822327 
	C235.696945,130.365601 236.875397,130.171722 238.053864,129.977844 
	C239.051361,128.809021 240.088486,127.671478 241.039169,126.465752 
	C244.285736,122.348175 248.323700,119.675255 253.746689,120.357979 
	C258.690521,120.980377 264.012238,126.165146 264.988403,130.950974 
	C265.131439,131.652222 264.624207,132.486130 263.734131,133.569763 
	C258.748199,133.880859 254.445938,133.880859 250.143677,133.880859 
	C250.137497,134.602951 250.131317,135.325027 250.125122,136.047119 
	C254.733154,136.047119 259.341156,136.047119 263.949188,136.047119 
z"/>
<path fill="#1D2F51" opacity="1.000000" stroke="none" 
	d="
M149.950226,135.996918 
	C149.950226,138.929596 149.950226,141.862259 149.950226,145.435257 
	C144.275955,145.435257 139.191101,145.733307 134.157364,145.353561 
	C128.853806,144.953461 126.125488,141.364090 126.022102,135.659912 
	C125.867737,127.141899 128.908508,121.970016 134.710037,120.883095 
	C142.162460,119.486877 147.225128,122.249886 150.705322,130.094269 
	C150.933472,131.596832 150.884705,132.466675 150.436127,133.347321 
	C145.382858,133.778946 140.729431,134.199783 136.075989,134.620605 
	C136.107574,135.079376 136.139160,135.538147 136.170746,135.996918 
	C140.763901,135.996918 145.357071,135.996918 149.950226,135.996918 
z"/>
<path fill="#1A2C4F" opacity="1.000000" stroke="none" 
	d="
M150.835938,133.336533 
	C150.884705,132.466675 150.933472,131.596832 150.972656,130.289520 
	C153.702652,125.349052 156.551575,121.176689 162.920990,121.851837 
	C163.818848,121.947006 165.405441,120.039055 165.852249,118.769371 
	C166.424469,117.143311 166.164429,115.224365 166.257660,113.528549 
	C175.239273,111.698097 175.676010,112.047859 175.765915,121.351242 
	C173.081833,119.163612 170.715973,116.695869 168.350128,114.228134 
	C167.831696,114.489456 167.313263,114.750778 166.794830,115.012100 
	C167.383942,116.786858 168.147781,118.526718 168.511230,120.346550 
	C168.850525,122.045532 168.982681,123.849876 168.821503,125.571854 
	C168.457687,129.459198 167.747025,133.316864 167.482452,137.207336 
	C167.447235,137.725510 169.124496,138.690536 170.114731,138.872803 
	C171.712173,139.166840 173.397751,138.982010 175.140900,139.368835 
	C175.173920,140.492737 175.112137,141.247253 174.624359,142.001495 
	C171.621368,142.482254 168.086105,140.530807 167.013947,144.831589 
	C157.804184,147.177063 153.532501,144.667679 151.141388,134.999847 
	C150.934692,134.043320 150.885315,133.689926 150.835938,133.336533 
M164.790436,132.026108 
	C163.645752,132.079712 162.501083,132.133331 161.356400,132.186951 
	C161.564392,132.911789 161.772400,133.636642 161.980392,134.361481 
	C162.964417,133.807236 163.948441,133.253006 164.790436,132.026108 
M173.541931,116.508156 
	C173.541931,116.508156 173.483170,116.535164 173.541931,116.508156 
z"/>
<path fill="#192A4F" opacity="1.000000" stroke="none" 
	d="
M123.766739,123.053055 
	C122.582680,123.462326 121.398628,123.871605 120.054962,124.336052 
	C120.054962,129.699615 120.157059,135.123428 119.994308,140.539291 
	C119.943817,142.219666 119.174507,143.878433 118.252144,145.359970 
	C115.242477,144.759674 112.714943,144.346527 110.187416,143.933365 
	C110.187416,137.385834 110.187416,130.838303 110.187416,123.980591 
	C107.893448,123.980591 106.349747,123.980591 103.970657,123.980591 
	C103.970657,120.806900 103.970657,117.926895 104.430336,114.537361 
	C111.125656,114.027832 117.361290,114.027832 123.766739,114.027832 
	C123.766739,117.486710 123.766739,120.269882 123.766739,123.053055 
z"/>
<path fill="#1C2E53" opacity="1.000000" stroke="none" 
	d="
M234.006805,132.982742 
	C235.337677,135.448837 236.668533,137.914917 238.031372,140.753174 
	C238.683060,144.262115 237.287415,145.607269 234.210556,145.468216 
	C230.127304,145.283676 226.043793,145.104782 221.491211,144.521240 
	C220.349060,143.072021 219.676086,142.025009 219.004944,140.650818 
	C219.005737,139.887344 219.004700,139.451080 219.329926,138.971085 
	C220.719925,138.562180 221.783646,138.197021 222.369064,137.996048 
	C222.145935,136.513824 222.157883,135.225479 221.737701,134.098221 
	C220.958878,132.008789 219.927460,130.013535 218.842468,127.691887 
	C217.790405,125.938568 216.897110,124.472420 216.003815,123.006271 
	C220.803116,122.678604 225.598755,122.164001 230.402618,122.070305 
	C236.488708,121.951599 237.555984,123.099022 238.029572,129.571899 
	C236.875397,130.171722 235.696945,130.365601 234.222107,131.136780 
	C233.952774,132.136963 233.979782,132.559860 234.006805,132.982742 
z"/>
<path fill="#1B2D52" opacity="1.000000" stroke="none" 
	d="
M175.046112,138.999451 
	C173.397751,138.982010 171.712173,139.166840 170.114731,138.872803 
	C169.124496,138.690536 167.447235,137.725510 167.482452,137.207336 
	C167.747025,133.316864 168.457687,129.459198 168.821503,125.571854 
	C168.982681,123.849876 168.850525,122.045532 168.511230,120.346550 
	C168.147781,118.526718 167.383942,116.786858 166.794830,115.012100 
	C167.313263,114.750778 167.831696,114.489456 168.350128,114.228134 
	C170.715973,116.695869 173.081833,119.163612 175.761108,121.792633 
	C176.074539,121.953926 176.021057,121.961136 176.085236,122.270828 
	C176.741913,123.078674 177.336761,124.011642 177.926544,124.008446 
	C184.619293,123.972305 184.822739,128.739182 184.973114,133.456131 
	C185.093475,137.231689 184.997650,141.014114 184.997772,144.793503 
	C182.818268,144.826447 180.638779,144.859406 177.898117,144.403961 
	C177.336960,139.707001 177.336960,135.498428 177.336960,131.289841 
	C176.752426,131.302414 176.167892,131.314987 175.583359,131.327545 
	C175.404282,133.884842 175.225204,136.442139 175.046112,138.999451 
z"/>
<path fill="#16274F" opacity="1.000000" stroke="none" 
	d="
M219.003662,139.014816 
	C219.004700,139.451080 219.005737,139.887344 218.978455,141.048187 
	C217.405670,146.011566 213.687027,143.070557 211.178619,144.126114 
	C211.178619,144.126114 211.024323,143.979660 210.956116,143.594421 
	C210.993225,142.799454 211.098511,142.389740 211.527527,141.873230 
	C211.631638,139.526291 211.412048,137.286118 211.121384,134.615997 
	C211.097946,132.446472 211.145599,130.706924 211.303574,128.869598 
	C211.565109,128.478043 211.493423,128.233185 211.134216,127.606392 
	C211.106277,125.441391 211.142960,123.707237 211.179642,121.973091 
	C212.567703,122.225342 213.955780,122.477592 215.673828,122.868057 
	C216.897110,124.472420 217.790405,125.938568 218.841553,128.100845 
	C219.000839,132.202911 219.002243,135.608871 219.003662,139.014816 
z"/>
<path fill="#1A2C4F" opacity="1.000000" stroke="none" 
	d="
M185.236465,144.938889 
	C184.997650,141.014114 185.093475,137.231689 184.973114,133.456131 
	C184.822739,128.739182 184.619293,123.972305 177.926544,124.008446 
	C177.336761,124.011642 176.741913,123.078674 176.098633,122.249939 
	C180.443481,120.588890 183.608688,122.633270 186.703674,125.860016 
	C192.360474,131.254395 189.123886,137.923950 190.001221,144.352905 
	C188.492432,144.896072 186.983795,144.990173 185.236465,144.938889 
z"/>
<path fill="#15274C" opacity="1.000000" stroke="none" 
	d="
M220.517975,115.752602 
	C219.034637,120.113380 215.700790,119.024117 212.926971,118.763123 
	C212.212296,118.695885 210.994064,116.800713 211.164703,115.988419 
	C211.527985,114.259048 212.360764,111.566513 213.517166,111.268051 
	C216.763290,110.430267 220.264343,110.617699 220.517975,115.752602 
z"/>
<path fill="#044F1B" opacity="1.000000" stroke="none" 
	d="
M125.554123,107.030975 
	C126.387314,100.584068 129.847305,95.936577 136.061630,93.471344 
	C139.238312,92.211159 142.399063,90.910797 145.814301,89.895309 
	C137.509659,93.582863 130.075089,98.342690 125.554123,107.030975 
z"/>
<path fill="#9FAABC" opacity="1.000000" stroke="none" 
	d="
M211.203827,141.980026 
	C211.098511,142.389740 210.993225,142.799454 210.873993,143.526794 
	C208.052582,139.989120 207.950531,135.590652 208.299606,131.100784 
	C208.563065,127.712234 208.822983,124.323402 209.048706,120.480743 
	C209.664825,120.481346 210.316727,120.935905 211.074127,121.681778 
	C211.142960,123.707237 211.106277,125.441391 211.084686,127.838654 
	C211.099792,128.501770 211.193237,128.967377 211.193237,128.967377 
	C211.145599,130.706924 211.097946,132.446472 211.061005,135.046204 
	C211.115738,137.930939 211.159775,139.955490 211.203827,141.980026 
z"/>
<path fill="#BBC3D2" opacity="1.000000" stroke="none" 
	d="
M175.140915,139.368835 
	C175.225204,136.442139 175.404282,133.884842 175.583359,131.327545 
	C176.167892,131.314987 176.752426,131.302414 177.336960,131.289841 
	C177.336960,135.498428 177.336960,139.707001 177.429962,144.353806 
	C176.105270,145.105881 174.687607,145.419739 173.547836,145.358932 
	C174.233948,143.990097 174.642151,142.995926 175.050354,142.001755 
	C175.112137,141.247253 175.173920,140.492737 175.140915,139.368835 
z"/>
<path fill="#67718A" opacity="1.000000" stroke="none" 
	d="
M124.006531,123.328110 
	C123.766739,120.269882 123.766739,117.486710 123.766739,114.027832 
	C117.361290,114.027832 111.125656,114.027832 104.424202,114.093933 
	C103.672043,113.942154 103.385696,113.724281 102.991211,113.256371 
	C103.070740,112.936844 103.258408,112.867363 103.741302,112.745911 
	C109.523117,112.806564 115.016197,112.800446 120.492569,113.099884 
	C122.273224,113.197235 125.514961,114.086113 125.517456,114.624847 
	C125.531281,117.615608 124.753281,120.610008 124.006531,123.328110 
z"/>
<path fill="#82A992" opacity="1.000000" stroke="none" 
	d="
M193.418213,66.692131 
	C194.692108,66.250275 196.339157,65.116653 198.003952,65.089966 
	C208.981613,64.913948 219.963104,64.976158 231.399231,64.971825 
	C230.224380,65.326317 228.599594,65.933662 226.961990,65.970428 
	C215.909378,66.218620 204.854034,66.345940 193.418213,66.692131 
z"/>
<path fill="#AEBBD4" opacity="1.000000" stroke="none" 
	d="
M150.436127,133.347321 
	C150.885315,133.689926 150.934692,134.043320 150.986664,134.665436 
	C150.690521,135.114288 150.391800,135.294418 150.021667,135.735718 
	C145.357071,135.996918 140.763901,135.996918 136.170746,135.996918 
	C136.139160,135.538147 136.107574,135.079376 136.075989,134.620605 
	C140.729431,134.199783 145.382858,133.778946 150.436127,133.347321 
z"/>
<path fill="#AAB9D0" opacity="1.000000" stroke="none" 
	d="
M263.992737,135.680298 
	C259.341156,136.047119 254.733154,136.047119 250.125122,136.047119 
	C250.131317,135.325027 250.137497,134.602951 250.143677,133.880859 
	C254.445938,133.880859 258.748199,133.880859 263.513489,133.858368 
	C263.996490,134.328415 264.016388,134.820953 263.992737,135.680298 
z"/>
<path fill="#112140" opacity="1.000000" stroke="none" 
	d="
M211.132477,144.432312 
	C213.687027,143.070557 217.405670,146.011566 218.976624,141.375381 
	C219.676086,142.025009 220.349060,143.072021 221.040710,144.470947 
	C217.998032,145.207626 214.936661,145.592346 211.438873,145.976364 
	C211.030411,145.563278 211.058380,145.150909 211.132477,144.432312 
z"/>
<path fill="#1B2D52" opacity="1.000000" stroke="none" 
	d="
M174.624344,142.001495 
	C174.642151,142.995926 174.233948,143.990097 173.448975,145.010803 
	C171.339264,145.004166 169.606308,144.970978 167.443649,144.884705 
	C168.086105,140.530807 171.621368,142.482254 174.624344,142.001495 
z"/>
<path fill="#0E1D3E" opacity="1.000000" stroke="none" 
	d="
M110.232430,144.317352 
	C112.714943,144.346527 115.242477,144.759674 117.896233,145.525864 
	C115.440788,145.486374 112.859116,145.093842 110.232430,144.317352 
z"/>
<path fill="#000000" opacity="1.000000" stroke="none" 
	d="
M90.322922,90.933350 
	C94.675087,86.780617 99.373886,82.539970 104.411522,78.339691 
	C100.056763,82.535187 95.363159,86.690315 90.322922,90.933350 
z"/>
<path fill="#000000" opacity="1.000000" stroke="none" 
	d="
M86.267075,94.135971 
	C87.064674,93.212090 88.182457,92.127457 89.660889,91.009262 
	C88.876785,91.975540 87.732018,92.975372 86.267075,94.135971 
z"/>
<path fill="#000000" opacity="1.000000" stroke="none" 
	d="
M83.606125,95.802010 
	C83.788567,95.499565 84.246674,95.184807 85.003769,94.913826 
	C84.829094,95.234970 84.355438,95.512329 83.606125,95.802010 
z"/>
<path fill="#000000" opacity="1.000000" stroke="none" 
	d="
M237.944412,131.002777 
	C238.382339,132.258804 238.820267,133.514832 239.729340,136.122177 
	C237.537827,134.609528 236.560394,133.934860 235.386536,132.796021 
	C236.108200,131.888809 237.026306,131.445801 237.944412,131.002777 
z"/>
<path fill="#CAD4E9" opacity="1.000000" stroke="none" 
	d="
M237.553329,130.993835 
	C237.026306,131.445801 236.108200,131.888809 235.096436,132.664825 
	C234.836365,133.022186 234.669952,133.046570 234.255173,133.026855 
	C233.979782,132.559860 233.952774,132.136963 233.978012,131.399612 
	C235.074265,131.051727 236.118256,131.018295 237.553329,130.993835 
z"/>
<path fill="#000000" opacity="1.000000" stroke="none" 
	d="
M164.861450,132.362427 
	C163.948441,133.253006 162.964417,133.807236 161.980392,134.361481 
	C161.772400,133.636642 161.564392,132.911789 161.356400,132.186951 
	C162.501083,132.133331 163.645752,132.079712 164.861450,132.362427 
z"/>
<path fill="#1B2D52" opacity="1.000000" stroke="none" 
	d="
M173.512543,116.521660 
	C173.483170,116.535164 173.541931,116.508156 173.512543,116.521660 
z"/>
<path fill="#112140" opacity="1.000000" stroke="none" 
	d="
M219.329926,138.971085 
	C219.002243,135.608871 219.000839,132.202911 219.000336,128.388000 
	C219.927460,130.013535 220.958878,132.008789 221.737701,134.098221 
	C222.157883,135.225479 222.145935,136.513824 222.369064,137.996048 
	C221.783646,138.197021 220.719925,138.562180 219.329926,138.971085 
z"/>
<path fill="#112140" opacity="1.000000" stroke="none" 
	d="
M211.527527,141.873230 
	C211.159775,139.955490 211.115738,137.930939 211.132080,135.476181 
	C211.412048,137.286118 211.631638,139.526291 211.527527,141.873230 
z"/>
<path fill="#112140" opacity="1.000000" stroke="none" 
	d="
M211.303574,128.869598 
	C211.193237,128.967377 211.099792,128.501770 211.149323,128.269501 
	C211.493423,128.233185 211.565109,128.478043 211.303574,128.869598 
z"/>
</svg>